<svg width="247" height="61" viewBox="0 0 247 61" fill="none" xmlns="http://www.w3.org/2000/svg">
<path d="M69.0217 10.4156H74.0917C76.3103 10.4156 77.9657 10.8403 79.0577 11.6896C80.1497 12.5216 80.6957 13.9603 80.6957 16.0056C80.6957 17.3403 80.4963 18.4323 80.0977 19.2816C79.7163 20.1136 79.049 20.7203 78.0957 21.1016L81.0337 31.4756H77.1857L74.6637 21.8296H72.8437V31.4756H69.0217V10.4156ZM74.0657 19.4376C75.1577 19.4376 75.929 19.1863 76.3797 18.6836C76.8477 18.1809 77.0817 17.3576 77.0817 16.2136C77.0817 15.1043 76.8737 14.2983 76.4577 13.7956C76.059 13.2929 75.331 13.0416 74.2737 13.0416H72.8437V19.4376H74.0657ZM87.9119 31.7096C86.2479 31.7096 85.0259 31.2503 84.2459 30.3316C83.4659 29.3956 83.0759 28.0176 83.0759 26.1976V21.7256C83.0759 19.8883 83.4659 18.5103 84.2459 17.5916C85.0432 16.6729 86.2652 16.2136 87.9119 16.2136C89.6106 16.2136 90.8066 16.6903 91.4999 17.6436C92.2106 18.5969 92.5659 20.0356 92.5659 21.9596V24.1176H86.5859V27.0816C86.5859 27.8096 86.6899 28.3383 86.8979 28.6676C87.1232 28.9969 87.4699 29.1616 87.9379 29.1616C88.3886 29.1616 88.7092 29.0056 88.8999 28.6936C89.1079 28.3643 89.2119 27.8703 89.2119 27.2116V25.9376H92.5399V26.9776C92.5399 28.5203 92.1499 29.6989 91.3699 30.5136C90.5899 31.3109 89.4372 31.7096 87.9119 31.7096ZM89.2119 22.3756V20.9456C89.2119 20.1656 89.1166 19.6109 88.9259 19.2816C88.7352 18.9349 88.3972 18.7616 87.9119 18.7616C87.4092 18.7616 87.0626 18.9436 86.8719 19.3076C86.6812 19.6716 86.5859 20.3476 86.5859 21.3356V22.3756H89.2119ZM94.9654 16.4476H98.3714V17.7736C99.3767 16.7163 100.555 16.1876 101.907 16.1876C102.514 16.1876 103.034 16.3436 103.467 16.6556C103.901 16.9503 104.221 17.4009 104.429 18.0076C105.469 16.7943 106.735 16.1876 108.225 16.1876C109.057 16.1876 109.725 16.4909 110.227 17.0976C110.747 17.7043 111.007 18.5796 111.007 19.7236V31.4756H107.627V20.0616C107.627 19.5069 107.532 19.1169 107.341 18.8916C107.168 18.6663 106.899 18.5536 106.535 18.5536C106.258 18.5536 105.946 18.6316 105.599 18.7876C105.27 18.9436 104.967 19.1603 104.689 19.4376V19.7236V31.4756H101.335V20.0616C101.335 19.5069 101.24 19.1169 101.049 18.8916C100.859 18.6663 100.581 18.5536 100.217 18.5536C99.9401 18.5536 99.6367 18.6316 99.3074 18.7876C98.9781 18.9436 98.6661 19.1603 98.3714 19.4376V31.4756H94.9654V16.4476ZM118.178 31.7096C116.566 31.7096 115.361 31.2676 114.564 30.3836C113.766 29.4823 113.368 28.1823 113.368 26.4836V21.4396C113.368 19.7409 113.766 18.4496 114.564 17.5656C115.361 16.6643 116.566 16.2136 118.178 16.2136C119.79 16.2136 120.994 16.6643 121.792 17.5656C122.606 18.4496 123.014 19.7409 123.014 21.4396V26.4836C123.014 28.1823 122.606 29.4823 121.792 30.3836C120.994 31.2676 119.79 31.7096 118.178 31.7096ZM118.204 29.2656C118.741 29.2656 119.096 29.0576 119.27 28.6416C119.443 28.2083 119.53 27.5756 119.53 26.7436V21.2056C119.53 20.3736 119.443 19.7409 119.27 19.3076C119.096 18.8743 118.741 18.6576 118.204 18.6576C117.649 18.6576 117.285 18.8743 117.112 19.3076C116.938 19.7409 116.852 20.3736 116.852 21.2056V26.7436C116.852 27.5756 116.938 28.2083 117.112 28.6416C117.285 29.0576 117.649 29.2656 118.204 29.2656ZM129.802 31.6576C128.432 31.6576 127.462 31.3283 126.89 30.6696C126.335 30.0109 126.058 29.0316 126.058 27.7316V18.7616H124.55V16.4476H126.058V11.9496H129.62V16.4476H131.882V18.7616H129.62V27.4196C129.62 27.9223 129.724 28.2863 129.932 28.5116C130.157 28.7369 130.504 28.8496 130.972 28.8496C131.405 28.8496 131.769 28.8149 132.064 28.7456V31.4756C131.37 31.5969 130.616 31.6576 129.802 31.6576ZM134.326 10.4156H143.166V13.1196H138.148V19.1776H142.1V21.8556H138.148V28.8496H143.218V31.4756H134.326V10.4156ZM145.213 16.4476H148.619V17.7736C149.625 16.7163 150.803 16.1876 152.155 16.1876C152.762 16.1876 153.282 16.3436 153.715 16.6556C154.149 16.9503 154.469 17.4009 154.677 18.0076C155.717 16.7943 156.983 16.1876 158.473 16.1876C159.305 16.1876 159.973 16.4909 160.475 17.0976C160.995 17.7043 161.255 18.5796 161.255 19.7236V31.4756H157.875V20.0616C157.875 19.5069 157.78 19.1169 157.589 18.8916C157.416 18.6663 157.147 18.5536 156.783 18.5536C156.506 18.5536 156.194 18.6316 155.847 18.7876C155.518 18.9436 155.215 19.1603 154.937 19.4376V19.7236V31.4756H151.583V20.0616C151.583 19.5069 151.488 19.1169 151.297 18.8916C151.107 18.6663 150.829 18.5536 150.465 18.5536C150.188 18.5536 149.885 18.6316 149.555 18.7876C149.226 18.9436 148.914 19.1603 148.619 19.4376V31.4756H145.213V16.4476ZM163.876 16.4476H167.412V17.5916C168.365 16.6729 169.388 16.2136 170.48 16.2136C171.693 16.2136 172.551 16.7163 173.054 17.7216C173.556 18.7269 173.808 19.8969 173.808 21.2316V26.3276C173.808 27.9396 173.522 29.2396 172.95 30.2276C172.395 31.2156 171.511 31.7096 170.298 31.7096C169.327 31.7096 168.365 31.2589 167.412 30.3576V36.4156H163.876V16.4476ZM168.972 29.2396C169.474 29.2396 169.812 28.9969 169.986 28.5116C170.176 28.0263 170.272 27.3416 170.272 26.4576V21.0496C170.272 20.2696 170.176 19.6629 169.986 19.2296C169.795 18.7963 169.448 18.5796 168.946 18.5796C168.426 18.5796 167.914 18.7963 167.412 19.2296V28.7196C167.897 29.0663 168.417 29.2396 168.972 29.2396ZM176.475 10.4156H179.985V31.4756H176.475V10.4156ZM187.342 31.7096C185.73 31.7096 184.525 31.2676 183.728 30.3836C182.93 29.4823 182.532 28.1823 182.532 26.4836V21.4396C182.532 19.7409 182.93 18.4496 183.728 17.5656C184.525 16.6643 185.73 16.2136 187.342 16.2136C188.954 16.2136 190.158 16.6643 190.956 17.5656C191.77 18.4496 192.178 19.7409 192.178 21.4396V26.4836C192.178 28.1823 191.77 29.4823 190.956 30.3836C190.158 31.2676 188.954 31.7096 187.342 31.7096ZM187.368 29.2656C187.905 29.2656 188.26 29.0576 188.434 28.6416C188.607 28.2083 188.694 27.5756 188.694 26.7436V21.2056C188.694 20.3736 188.607 19.7409 188.434 19.3076C188.26 18.8743 187.905 18.6576 187.368 18.6576C186.813 18.6576 186.449 18.8743 186.276 19.3076C186.102 19.7409 186.016 20.3736 186.016 21.2056V26.7436C186.016 27.5756 186.102 28.2083 186.276 28.6416C186.449 29.0576 186.813 29.2656 187.368 29.2656ZM194.728 33.0096C195.664 33.0096 196.322 32.9229 196.704 32.7496C197.102 32.5936 197.302 32.2816 197.302 31.8136C197.302 31.5016 197.12 30.6176 196.756 29.1616L193.454 16.4476H196.886L198.836 26.3796L200.526 16.4476H203.932L200.422 32.0736C200.127 33.3389 199.564 34.2316 198.732 34.7516C197.917 35.2889 196.808 35.5576 195.404 35.5576H194.728V33.0096ZM210.117 31.7096C208.453 31.7096 207.231 31.2503 206.451 30.3316C205.671 29.3956 205.281 28.0176 205.281 26.1976V21.7256C205.281 19.8883 205.671 18.5103 206.451 17.5916C207.248 16.6729 208.47 16.2136 210.117 16.2136C211.816 16.2136 213.012 16.6903 213.705 17.6436C214.416 18.5969 214.771 20.0356 214.771 21.9596V24.1176H208.791V27.0816C208.791 27.8096 208.895 28.3383 209.103 28.6676C209.328 28.9969 209.675 29.1616 210.143 29.1616C210.594 29.1616 210.914 29.0056 211.105 28.6936C211.313 28.3643 211.417 27.8703 211.417 27.2116V25.9376H214.745V26.9776C214.745 28.5203 214.355 29.6989 213.575 30.5136C212.795 31.3109 211.642 31.7096 210.117 31.7096ZM211.417 22.3756V20.9456C211.417 20.1656 211.322 19.6109 211.131 19.2816C210.94 18.9349 210.602 18.7616 210.117 18.7616C209.614 18.7616 209.268 18.9436 209.077 19.3076C208.886 19.6716 208.791 20.3476 208.791 21.3356V22.3756H211.417ZM221.72 31.7096C220.056 31.7096 218.834 31.2503 218.054 30.3316C217.274 29.3956 216.884 28.0176 216.884 26.1976V21.7256C216.884 19.8883 217.274 18.5103 218.054 17.5916C218.852 16.6729 220.074 16.2136 221.72 16.2136C223.419 16.2136 224.615 16.6903 225.308 17.6436C226.019 18.5969 226.374 20.0356 226.374 21.9596V24.1176H220.394V27.0816C220.394 27.8096 220.498 28.3383 220.706 28.6676C220.932 28.9969 221.278 29.1616 221.746 29.1616C222.197 29.1616 222.518 29.0056 222.708 28.6936C222.916 28.3643 223.02 27.8703 223.02 27.2116V25.9376H226.348V26.9776C226.348 28.5203 225.958 29.6989 225.178 30.5136C224.398 31.3109 223.246 31.7096 221.72 31.7096ZM223.02 22.3756V20.9456C223.02 20.1656 222.925 19.6109 222.734 19.2816C222.544 18.9349 222.206 18.7616 221.72 18.7616C221.218 18.7616 220.871 18.9436 220.68 19.3076C220.49 19.6716 220.394 20.3476 220.394 21.3356V22.3756H223.02ZM232.856 31.7096C231.591 31.7096 230.551 31.3716 229.736 30.6956C228.921 30.0196 228.341 29.0316 227.994 27.7316L230.62 26.7176C231.019 28.3989 231.747 29.2396 232.804 29.2396C233.203 29.2396 233.506 29.1356 233.714 28.9276C233.939 28.7196 234.052 28.4336 234.052 28.0696C234.052 27.6709 233.931 27.3069 233.688 26.9776C233.445 26.6309 233.012 26.1976 232.388 25.6776L230.594 24.1176C229.831 23.4936 229.268 22.8869 228.904 22.2976C228.54 21.7083 228.358 20.9889 228.358 20.1396C228.358 18.9609 228.757 18.0163 229.554 17.3056C230.369 16.5776 231.391 16.2136 232.622 16.2136C233.801 16.2136 234.763 16.5689 235.508 17.2796C236.253 17.9729 236.739 18.9176 236.964 20.1136L234.65 21.1016C234.511 20.4083 234.277 19.8449 233.948 19.4116C233.636 18.9609 233.229 18.7356 232.726 18.7356C232.362 18.7356 232.067 18.8483 231.842 19.0736C231.634 19.2989 231.53 19.5849 231.53 19.9316C231.53 20.2089 231.651 20.5036 231.894 20.8156C232.137 21.1276 232.501 21.4916 232.986 21.9076L234.806 23.5716C235.586 24.2476 236.184 24.8976 236.6 25.5216C237.033 26.1283 237.25 26.8649 237.25 27.7316C237.25 28.9969 236.834 29.9763 236.002 30.6696C235.187 31.3629 234.139 31.7096 232.856 31.7096Z" fill="white"/>
<path d="M71.7419 50.3062H70.9875V40.3013H67.5085V39.5981H75.2209V40.3013H71.7419V50.3062ZM82.1863 50.3062V45.1426C82.1863 44.3418 82.0178 43.7607 81.6809 43.3994C81.344 43.0332 80.8215 42.8501 80.1135 42.8501C79.1614 42.8501 78.4631 43.0918 78.0188 43.5752C77.5793 44.0537 77.3596 44.8325 77.3596 45.9116V50.3062H76.6345V38.9097H77.3596V42.5352L77.323 43.5532H77.3743C77.6721 43.0747 78.0481 42.728 78.5022 42.5132C78.9563 42.2983 79.5203 42.1909 80.1941 42.1909C82.0007 42.1909 82.9041 43.1602 82.9041 45.0986V50.3062H82.1863ZM88.6975 50.4526C87.5403 50.4526 86.637 50.0962 85.9875 49.3833C85.343 48.6704 85.0208 47.6719 85.0208 46.3877C85.0208 45.1182 85.3333 44.1025 85.9583 43.3408C86.5833 42.5742 87.4255 42.1909 88.4851 42.1909C89.4226 42.1909 90.1624 42.5181 90.7043 43.1724C91.2463 43.8267 91.5173 44.7153 91.5173 45.8384V46.4243H85.7825C85.7922 47.5181 86.0461 48.353 86.5442 48.9292C87.0471 49.5054 87.7649 49.7935 88.6975 49.7935C89.1516 49.7935 89.5496 49.7617 89.8914 49.6982C90.238 49.6348 90.675 49.498 91.2024 49.2881V49.9473C90.7532 50.1426 90.3381 50.2744 89.9573 50.3428C89.5764 50.416 89.1565 50.4526 88.6975 50.4526ZM88.4851 42.8354C87.7185 42.8354 87.1033 43.0894 86.6394 43.5972C86.1755 44.1001 85.9045 44.8276 85.8264 45.7798H90.7483C90.7483 44.8569 90.5481 44.1367 90.1477 43.6191C89.7473 43.0967 89.1931 42.8354 88.4851 42.8354ZM104.196 46.3145C104.196 47.6133 103.881 48.6289 103.251 49.3613C102.621 50.0889 101.752 50.4526 100.643 50.4526C99.9451 50.4526 99.3298 50.2842 98.7976 49.9473C98.2654 49.6104 97.8577 49.127 97.5745 48.4971C97.2913 47.8672 97.1497 47.1396 97.1497 46.3145C97.1497 45.0156 97.4646 44.0049 98.0945 43.2822C98.7244 42.5547 99.5886 42.1909 100.687 42.1909C101.781 42.1909 102.638 42.5596 103.258 43.2969C103.883 44.0293 104.196 45.0352 104.196 46.3145ZM97.9114 46.3145C97.9114 47.4082 98.1506 48.2627 98.6292 48.8779C99.1125 49.4883 99.7937 49.7935 100.673 49.7935C101.552 49.7935 102.23 49.4883 102.709 48.8779C103.192 48.2627 103.434 47.4082 103.434 46.3145C103.434 45.2158 103.19 44.3638 102.701 43.7583C102.218 43.1528 101.537 42.8501 100.658 42.8501C99.7791 42.8501 99.1003 43.1528 98.6218 43.7583C98.1482 44.3589 97.9114 45.2109 97.9114 46.3145ZM107.03 42.3447V47.501C107.03 48.3018 107.198 48.8853 107.535 49.2515C107.872 49.6128 108.395 49.7935 109.103 49.7935C110.05 49.7935 110.746 49.5542 111.19 49.0757C111.639 48.5972 111.864 47.8184 111.864 46.7393V42.3447H112.582V50.3062H111.967L111.835 49.2075H111.791C111.273 50.0376 110.353 50.4526 109.03 50.4526C107.218 50.4526 106.312 49.4834 106.312 47.5449V42.3447H107.03ZM117.35 49.8081C117.809 49.8081 118.209 49.769 118.551 49.6909V50.2769C118.199 50.394 117.794 50.4526 117.335 50.4526C116.632 50.4526 116.112 50.2646 115.775 49.8887C115.443 49.5127 115.277 48.9219 115.277 48.1162V42.9746H114.098V42.5498L115.277 42.2202L115.643 40.4185H116.017V42.3447H118.353V42.9746H116.017V48.0137C116.017 48.624 116.124 49.0757 116.339 49.3687C116.554 49.6616 116.891 49.8081 117.35 49.8081ZM125.209 48.2334C125.209 48.9463 124.938 49.4956 124.396 49.8813C123.854 50.2622 123.085 50.4526 122.089 50.4526C121.024 50.4526 120.179 50.2891 119.554 49.9619V49.1782C120.355 49.5786 121.2 49.7788 122.089 49.7788C122.875 49.7788 123.47 49.6494 123.876 49.3906C124.286 49.127 124.491 48.7778 124.491 48.3433C124.491 47.9429 124.327 47.606 124 47.3325C123.678 47.0591 123.146 46.7905 122.404 46.5269C121.608 46.2388 121.049 45.9922 120.726 45.7871C120.404 45.5771 120.16 45.3428 119.994 45.084C119.833 44.8203 119.752 44.5005 119.752 44.1245C119.752 43.5288 120.001 43.0576 120.499 42.7109C121.002 42.3643 121.703 42.1909 122.601 42.1909C123.461 42.1909 124.276 42.3521 125.048 42.6743L124.777 43.3335C123.995 43.0112 123.27 42.8501 122.601 42.8501C121.952 42.8501 121.437 42.9575 121.056 43.1724C120.675 43.3872 120.485 43.6851 120.485 44.0659C120.485 44.481 120.631 44.813 120.924 45.062C121.222 45.311 121.801 45.5894 122.66 45.897C123.378 46.1558 123.9 46.3901 124.227 46.6001C124.554 46.8052 124.799 47.0396 124.96 47.3032C125.126 47.5669 125.209 47.877 125.209 48.2334ZM129.362 49.8081C129.821 49.8081 130.221 49.769 130.563 49.6909V50.2769C130.211 50.394 129.806 50.4526 129.347 50.4526C128.644 50.4526 128.124 50.2646 127.787 49.8887C127.455 49.5127 127.289 48.9219 127.289 48.1162V42.9746H126.11V42.5498L127.289 42.2202L127.655 40.4185H128.029V42.3447H130.365V42.9746H128.029V48.0137C128.029 48.624 128.136 49.0757 128.351 49.3687C128.566 49.6616 128.903 49.8081 129.362 49.8081ZM137.118 50.3062L136.935 49.0464H136.876C136.476 49.5591 136.063 49.9229 135.638 50.1377C135.219 50.3477 134.72 50.4526 134.144 50.4526C133.363 50.4526 132.755 50.2524 132.321 49.8521C131.886 49.4517 131.669 48.8975 131.669 48.1895C131.669 47.4131 131.991 46.8101 132.635 46.3804C133.285 45.9507 134.222 45.7236 135.448 45.6992L136.964 45.6553V45.1279C136.964 44.3711 136.81 43.7998 136.503 43.4141C136.195 43.0283 135.699 42.8354 135.016 42.8354C134.279 42.8354 133.514 43.0405 132.723 43.4507L132.452 42.8208C133.326 42.4106 134.191 42.2056 135.045 42.2056C135.919 42.2056 136.571 42.4326 137.001 42.8867C137.435 43.3408 137.653 44.0488 137.653 45.0107V50.3062H137.118ZM134.188 49.7935C135.038 49.7935 135.707 49.5518 136.195 49.0684C136.688 48.5801 136.935 47.9038 136.935 47.0396V46.2559L135.543 46.3145C134.425 46.3682 133.627 46.5439 133.148 46.8418C132.675 47.1348 132.438 47.5938 132.438 48.2188C132.438 48.7168 132.589 49.105 132.892 49.3833C133.199 49.6567 133.632 49.7935 134.188 49.7935ZM143.197 42.9746H141.322V50.3062H140.597V42.9746H139.117V42.5498L140.597 42.2788V41.6636C140.597 40.687 140.775 39.9717 141.132 39.5176C141.493 39.0586 142.081 38.8291 142.897 38.8291C143.336 38.8291 143.776 38.895 144.215 39.0269L144.047 39.6567C143.656 39.5347 143.268 39.4736 142.882 39.4736C142.316 39.4736 141.913 39.6421 141.674 39.979C141.439 40.311 141.322 40.853 141.322 41.605V42.3447H143.197V42.9746ZM147.694 42.9746H145.819V50.3062H145.094V42.9746H143.615V42.5498L145.094 42.2788V41.6636C145.094 40.687 145.272 39.9717 145.629 39.5176C145.99 39.0586 146.578 38.8291 147.394 38.8291C147.833 38.8291 148.273 38.895 148.712 39.0269L148.544 39.6567C148.153 39.5347 147.765 39.4736 147.379 39.4736C146.813 39.4736 146.41 39.6421 146.171 39.979C145.936 40.311 145.819 40.853 145.819 41.605V42.3447H147.694V42.9746ZM149.965 50.3062H149.24V42.3447H149.965V50.3062ZM149.137 40.1328C149.137 39.6641 149.291 39.4297 149.598 39.4297C149.75 39.4297 149.867 39.4907 149.95 39.6128C150.038 39.7349 150.082 39.9082 150.082 40.1328C150.082 40.3525 150.038 40.5259 149.95 40.6528C149.867 40.7798 149.75 40.8433 149.598 40.8433C149.291 40.8433 149.137 40.6064 149.137 40.1328ZM158.182 50.3062V45.1426C158.182 44.3418 158.014 43.7607 157.677 43.3994C157.34 43.0332 156.818 42.8501 156.11 42.8501C155.157 42.8501 154.459 43.0918 154.015 43.5752C153.575 44.0537 153.356 44.8325 153.356 45.9116V50.3062H152.631V42.3447H153.246L153.385 43.436H153.429C153.947 42.606 154.867 42.1909 156.19 42.1909C157.997 42.1909 158.9 43.1602 158.9 45.0986V50.3062H158.182ZM167.689 42.3447V42.8501L166.041 42.9526C166.481 43.4995 166.7 44.1001 166.7 44.7544C166.7 45.521 166.444 46.1436 165.931 46.6221C165.424 47.0957 164.74 47.3325 163.881 47.3325C163.519 47.3325 163.265 47.3179 163.119 47.2886C162.831 47.4399 162.611 47.6182 162.46 47.8232C162.308 48.0283 162.233 48.2456 162.233 48.4751C162.233 48.729 162.328 48.9146 162.518 49.0317C162.714 49.1489 163.038 49.2075 163.492 49.2075H164.884C165.748 49.2075 166.41 49.3833 166.869 49.7349C167.328 50.0815 167.557 50.5967 167.557 51.2803C167.557 52.1201 167.216 52.7671 166.532 53.2212C165.853 53.6802 164.884 53.9097 163.624 53.9097C162.623 53.9097 161.847 53.7168 161.295 53.3311C160.748 52.9453 160.475 52.4082 160.475 51.7197C160.475 51.1729 160.643 50.7188 160.98 50.3574C161.322 49.9961 161.783 49.7495 162.365 49.6177C162.125 49.5151 161.932 49.3711 161.786 49.1855C161.644 48.9951 161.573 48.7778 161.573 48.5337C161.573 48.0015 161.913 47.5327 162.592 47.1274C162.128 46.937 161.766 46.6392 161.508 46.2339C161.249 45.8237 161.119 45.355 161.119 44.8276C161.119 44.0317 161.371 43.3945 161.874 42.916C162.382 42.4326 163.065 42.1909 163.925 42.1909C164.447 42.1909 164.852 42.2422 165.14 42.3447H167.689ZM161.244 51.6538C161.244 52.7476 162.057 53.2944 163.683 53.2944C165.773 53.2944 166.818 52.6279 166.818 51.2949C166.818 50.8164 166.654 50.4697 166.327 50.2549C166 50.04 165.47 49.9326 164.738 49.9326H163.434C161.974 49.9326 161.244 50.5063 161.244 51.6538ZM161.852 44.8276C161.852 45.4429 162.037 45.9214 162.408 46.2632C162.784 46.6001 163.285 46.7686 163.91 46.7686C164.574 46.7686 165.082 46.6001 165.433 46.2632C165.79 45.9263 165.968 45.438 165.968 44.7983C165.968 44.1196 165.785 43.6118 165.419 43.2749C165.057 42.9331 164.55 42.7622 163.895 42.7622C163.26 42.7622 162.76 42.9453 162.394 43.3115C162.032 43.6729 161.852 44.1782 161.852 44.8276ZM176.405 50.4526C175.267 50.4526 174.376 50.0938 173.732 49.376C173.087 48.6582 172.765 47.6572 172.765 46.373C172.765 45.0547 173.099 44.0293 173.768 43.2969C174.437 42.5596 175.353 42.1909 176.515 42.1909C177.203 42.1909 177.863 42.3105 178.492 42.5498L178.295 43.1943C177.606 42.9648 177.008 42.8501 176.5 42.8501C175.524 42.8501 174.784 43.1528 174.281 43.7583C173.778 44.3589 173.527 45.2256 173.527 46.3584C173.527 47.4326 173.778 48.2749 174.281 48.8853C174.784 49.4907 175.487 49.7935 176.39 49.7935C177.113 49.7935 177.784 49.6641 178.405 49.4053V50.0791C177.897 50.3281 177.23 50.4526 176.405 50.4526ZM186.945 46.3145C186.945 47.6133 186.63 48.6289 186 49.3613C185.37 50.0889 184.501 50.4526 183.392 50.4526C182.694 50.4526 182.079 50.2842 181.547 49.9473C181.014 49.6104 180.607 49.127 180.323 48.4971C180.04 47.8672 179.899 47.1396 179.899 46.3145C179.899 45.0156 180.214 44.0049 180.844 43.2822C181.473 42.5547 182.338 42.1909 183.436 42.1909C184.53 42.1909 185.387 42.5596 186.007 43.2969C186.632 44.0293 186.945 45.0352 186.945 46.3145ZM180.66 46.3145C180.66 47.4082 180.9 48.2627 181.378 48.8779C181.862 49.4883 182.543 49.7935 183.422 49.7935C184.301 49.7935 184.979 49.4883 185.458 48.8779C185.941 48.2627 186.183 47.4082 186.183 46.3145C186.183 45.2158 185.939 44.3638 185.45 43.7583C184.967 43.1528 184.286 42.8501 183.407 42.8501C182.528 42.8501 181.849 43.1528 181.371 43.7583C180.897 44.3589 180.66 45.2109 180.66 46.3145ZM199.095 50.3062V45.084C199.095 44.3076 198.944 43.7412 198.641 43.3848C198.339 43.0283 197.875 42.8501 197.25 42.8501C196.434 42.8501 195.831 43.0747 195.441 43.5239C195.05 43.9731 194.855 44.6787 194.855 45.6406V50.3062H194.115V44.8643C194.115 43.5215 193.5 42.8501 192.269 42.8501C191.434 42.8501 190.826 43.0942 190.446 43.5825C190.065 44.0659 189.874 44.8423 189.874 45.9116V50.3062H189.149V42.3447H189.75L189.904 43.436H189.948C190.167 43.0405 190.48 42.7354 190.885 42.5205C191.29 42.3008 191.737 42.1909 192.225 42.1909C193.48 42.1909 194.286 42.6621 194.642 43.6045H194.672C194.93 43.1504 195.277 42.8013 195.712 42.5571C196.151 42.313 196.649 42.1909 197.206 42.1909C198.075 42.1909 198.727 42.4229 199.161 42.8867C199.596 43.3506 199.813 44.0879 199.813 45.0986V50.3062H199.095ZM205.797 50.4526C204.572 50.4526 203.678 49.9937 203.116 49.0757H203.065L203.087 49.6909C203.107 50.0522 203.116 50.4478 203.116 50.8774V53.9097H202.391V42.3447H203.007L203.146 43.48H203.19C203.737 42.6206 204.611 42.1909 205.812 42.1909C206.886 42.1909 207.704 42.5449 208.265 43.2529C208.832 43.9561 209.115 44.9814 209.115 46.3291C209.115 47.6377 208.817 48.6533 208.221 49.376C207.631 50.0938 206.823 50.4526 205.797 50.4526ZM205.782 49.8081C206.598 49.8081 207.228 49.5054 207.672 48.8999C208.121 48.2944 208.346 47.4473 208.346 46.3584C208.346 44.0195 207.501 42.8501 205.812 42.8501C204.884 42.8501 204.203 43.1064 203.768 43.6191C203.334 44.127 203.116 44.957 203.116 46.1094V46.3438C203.116 47.5889 203.324 48.4775 203.739 49.0098C204.159 49.542 204.84 49.8081 205.782 49.8081ZM216.161 50.3062L215.978 49.0464H215.919C215.519 49.5591 215.106 49.9229 214.681 50.1377C214.261 50.3477 213.763 50.4526 213.187 50.4526C212.406 50.4526 211.798 50.2524 211.364 49.8521C210.929 49.4517 210.712 48.8975 210.712 48.1895C210.712 47.4131 211.034 46.8101 211.678 46.3804C212.328 45.9507 213.265 45.7236 214.491 45.6992L216.007 45.6553V45.1279C216.007 44.3711 215.853 43.7998 215.546 43.4141C215.238 43.0283 214.742 42.8354 214.059 42.8354C213.322 42.8354 212.557 43.0405 211.766 43.4507L211.495 42.8208C212.369 42.4106 213.234 42.2056 214.088 42.2056C214.962 42.2056 215.614 42.4326 216.044 42.8867C216.478 43.3408 216.696 44.0488 216.696 45.0107V50.3062H216.161ZM213.231 49.7935C214.081 49.7935 214.75 49.5518 215.238 49.0684C215.731 48.5801 215.978 47.9038 215.978 47.0396V46.2559L214.586 46.3145C213.468 46.3682 212.67 46.5439 212.191 46.8418C211.718 47.1348 211.481 47.5938 211.481 48.2188C211.481 48.7168 211.632 49.105 211.935 49.3833C212.242 49.6567 212.675 49.7935 213.231 49.7935ZM224.833 50.3062V45.1426C224.833 44.3418 224.664 43.7607 224.327 43.3994C223.99 43.0332 223.468 42.8501 222.76 42.8501C221.808 42.8501 221.11 43.0918 220.665 43.5752C220.226 44.0537 220.006 44.8325 220.006 45.9116V50.3062H219.281V42.3447H219.896L220.035 43.436H220.079C220.597 42.606 221.517 42.1909 222.841 42.1909C224.647 42.1909 225.551 43.1602 225.551 45.0986V50.3062H224.833ZM226.796 42.3447H227.543L229.227 46.8125C229.74 48.1846 230.065 49.1099 230.201 49.5884H230.245C230.45 48.9585 230.785 48.0186 231.249 46.7686L232.933 42.3447H233.68L230.114 51.5952C229.825 52.3472 229.584 52.855 229.388 53.1187C229.193 53.3823 228.964 53.5801 228.7 53.7119C228.441 53.8438 228.126 53.9097 227.755 53.9097C227.477 53.9097 227.167 53.8584 226.825 53.7559V53.126C227.108 53.2041 227.413 53.2432 227.74 53.2432C227.99 53.2432 228.209 53.1846 228.4 53.0674C228.59 52.9502 228.761 52.7671 228.912 52.5181C229.069 52.2739 229.247 51.8833 229.447 51.3462C229.652 50.814 229.784 50.4673 229.843 50.3062L226.796 42.3447Z" fill="white"/>
<g opacity="0.3">
<g opacity="0.3">
<path opacity="0.3" d="M4.28918 6.67188L18.2763 14.7219H53.7724V6.67188H4.28918Z" fill="black"/>
<path opacity="0.3" d="M21.509 26.5333C15.8253 29.3011 10.7333 33.062 6.44423 37.6258V17.8494L21.509 26.5333ZM0 60.4447C2.53544 51.6341 7.62744 43.9221 14.4309 38.1329L27.3193 60.4447H34.7777L19.6708 34.2875C24.7416 31.0759 30.4886 28.8363 36.6582 27.8221L0 6.67236V60.4447Z" fill="black"/>
<path opacity="0.3" d="M43.6095 29.3643H53.7724V37.4143H23.9599L22.5865 35.0479C28.7984 31.5194 35.961 29.4699 43.6095 29.3643Z" fill="black"/>
<path opacity="0.3" d="M32.6014 52.3735L37.2709 60.4447H53.7723V52.3735H32.6014Z" fill="black"/>
</g>
</g>
<path d="M5.34552 5.61621L19.3327 13.6662H54.8288V5.61621H5.34552Z" fill="#F78F01"/>
<path d="M22.5654 25.4771C16.8818 28.245 11.7898 32.0059 7.50069 36.5697V16.7933L22.5654 25.4771ZM1.05646 59.3886C3.59189 50.5779 8.68389 42.866 15.4873 37.0767L28.3758 59.3886H35.8342L20.7272 33.2313C25.7981 30.0198 31.5451 27.7802 37.7146 26.766L1.05646 5.61621V59.3886Z" fill="#FBBF13"/>
<path d="M44.6659 28.3076H54.8288V36.3576H25.0163L23.6429 33.9912C29.8548 30.4627 37.0174 28.4133 44.6659 28.3076Z" fill="#F78F01"/>
<path d="M33.658 51.3169L38.3274 59.388H54.8289V51.3169H33.658Z" fill="#F78F01"/>
</svg>
