<svg width="34" height="35" viewBox="0 0 34 35" fill="none" xmlns="http://www.w3.org/2000/svg">
<g clip-path="url(#clip0)">
<path d="M32.5712 12.4757C32.5715 9.28246 31.3199 6.27238 29.0473 3.99979C26.7747 1.72719 23.7646 0.475586 20.5712 0.475586H13.461C13.4608 0.475586 13.4608 0.475586 13.4608 0.475586C10.2678 0.475586 7.25748 1.72719 4.98514 3.99953C2.71254 6.27238 1.46094 9.28246 1.46094 12.4757V18.0647C1.46094 20.5378 2.21527 22.9165 3.64249 24.9442C4.90161 26.733 6.59497 28.1304 8.56926 29.0163V32.2266C8.56926 33.8865 9.49869 34.4756 10.2945 34.4756C10.8631 34.4756 11.4317 34.1949 11.9853 33.6416L15.5619 30.065L20.5714 30.0648C23.7646 30.0648 26.7747 28.8132 29.0473 26.5408C31.3199 24.2682 32.5715 21.2579 32.5715 18.0647L32.5712 12.4757ZM20.5714 28.0726L15.1494 28.0728C14.8851 28.0728 14.6319 28.1776 14.4452 28.3644L10.5768 32.2328C10.5718 32.238 10.5666 32.2429 10.5614 32.2479C10.5614 32.2409 10.5614 32.2336 10.5614 32.2266V28.3514C10.5614 27.9382 10.3065 27.568 9.92047 27.4207C6.05231 25.9447 3.45338 22.1847 3.45338 18.0647V12.4757C3.45338 9.81448 4.49773 7.30453 6.39394 5.40807C8.29015 3.51212 10.7998 2.46777 13.461 2.46777H20.5712C23.2323 2.46777 25.7423 3.51212 27.6385 5.40833C29.535 7.30479 30.5793 9.81474 30.579 12.4757L30.5793 18.0647C30.579 23.5831 26.0896 28.0726 20.5714 28.0726Z" fill="white"/>
<path d="M19.6651 16.7673C19.2762 16.3782 18.6456 16.3782 18.2565 16.7673L17.4519 17.5717L14.3339 14.454L15.1386 13.6496C15.3253 13.4628 15.4304 13.2094 15.4304 12.945C15.4304 12.681 15.3253 12.4275 15.1386 12.2408L11.3664 8.46858C11.1796 8.28181 10.9264 8.17676 10.6621 8.17676C10.398 8.17676 10.1446 8.28181 9.95783 8.46858L7.31715 11.1093C5.88915 12.5373 5.88915 14.8612 7.31741 16.29L15.6159 24.589C16.3059 25.2787 17.2259 25.6585 18.2062 25.6585C19.1867 25.6585 20.1068 25.2787 20.7968 24.589L23.4375 21.9485C23.6243 21.7615 23.7294 21.5083 23.7294 21.244C23.7294 20.9799 23.6243 20.7265 23.4375 20.5397L19.6651 16.7673ZM19.388 23.1799C19.0744 23.4935 18.6547 23.6663 18.2062 23.6663C17.7577 23.6663 17.338 23.4935 17.0244 23.1799L8.72621 14.8812C8.07459 14.2296 8.07434 13.1692 8.72595 12.5178L10.6621 10.5814L13.0255 12.945L12.2208 13.7494C12.0341 13.9362 11.929 14.1896 11.929 14.4537C11.929 14.718 12.0341 14.9712 12.2208 15.1582L16.7474 19.6848C17.1365 20.0736 17.7671 20.0739 18.1562 19.6848L18.9608 18.8804L21.3242 21.2437L19.388 23.1799Z" fill="white"/>
<path d="M17.2578 4.88184C16.7077 4.88184 16.2617 5.32774 16.2617 5.87793C16.2617 6.42786 16.7077 6.87402 17.2578 6.87402C19.5374 6.87402 21.6809 7.76169 23.2928 9.37386C24.9049 10.9858 25.7926 13.1289 25.7926 15.4088C25.7926 15.9587 26.2385 16.4049 26.7887 16.4049C27.3386 16.4049 27.7848 15.959 27.7848 15.4088C27.7848 12.5969 26.6899 9.95335 24.7016 7.96506C22.7133 5.97676 20.0697 4.88184 17.2578 4.88184Z" fill="white"/>
<path d="M21.525 15.4085C21.525 15.9584 21.9711 16.4046 22.5211 16.4046C23.0712 16.4046 23.5172 15.9584 23.5172 15.4085C23.5172 11.9572 20.7092 9.14941 17.2578 9.14941C16.7077 9.14941 16.2617 9.59532 16.2617 10.1455C16.2617 10.6957 16.7077 11.1416 17.2578 11.1416C19.6109 11.1416 21.525 13.0557 21.525 15.4085Z" fill="white"/>
</g>
<defs>
<clipPath id="clip0">
<rect width="34" height="34" fill="white" transform="translate(0 0.475586)"/>
</clipPath>
</defs>
</svg>
