<svg width="34" height="35" viewBox="0 0 34 35" fill="none" xmlns="http://www.w3.org/2000/svg">
<path d="M33.6443 16.6168L31.2168 14.1893L17.8591 0.831642C17.385 0.357552 16.6162 0.357552 16.1421 0.831642L2.78432 14.1893L0.355669 16.6181C-0.110239 17.1005 -0.0969332 17.8692 0.385482 18.3351C0.856085 18.7896 1.60212 18.7896 2.07272 18.3351L2.42728 17.9781V33.2617C2.42728 33.9324 2.97095 34.4761 3.64164 34.4761H30.3571C31.0278 34.4761 31.5715 33.9324 31.5715 33.2617V17.9781L31.9272 18.3339C32.4096 18.7998 33.1784 18.7864 33.6443 18.3041C34.0988 17.8335 34.0988 17.0874 33.6443 16.6168ZM20.6424 32.0474H13.3564V22.3327H20.6424V32.0474ZM29.1427 32.0474H23.0711V21.1184C23.0711 20.4477 22.5274 19.904 21.8567 19.904H12.142C11.4713 19.904 10.9277 20.4477 10.9277 21.1184V32.0474H4.856V15.5494L16.9993 3.40602L29.1427 15.5494V32.0474Z" fill="white"/>
</svg>
