<svg width="34" height="27" viewBox="0 0 34 27" fill="none" xmlns="http://www.w3.org/2000/svg">
<path d="M31.0117 0.526855H2.98828C1.3426 0.526855 0 1.868 0 3.51514V23.437C0 25.0786 1.33662 26.4253 2.98828 26.4253H31.0117C32.6533 26.4253 34 25.0887 34 23.437V3.51514C34 1.87357 32.6634 0.526855 31.0117 0.526855ZM30.5991 2.51904L17.0634 16.0548L3.41056 2.51904H30.5991ZM1.99219 23.0245V3.91816L11.5865 13.4302L1.99219 23.0245ZM3.40086 24.4331L13.0012 14.8328L16.3652 18.1678C16.7546 18.5539 17.383 18.5526 17.7708 18.1648L21.0508 14.8848L30.5991 24.4331H3.40086ZM32.0078 23.0244L22.4595 13.4761L32.0078 3.92765V23.0244Z" fill="white"/>
</svg>
