<svg width="24" height="24" viewBox="0 0 24 24" fill="none" xmlns="http://www.w3.org/2000/svg">
<g clip-path="url(#clip0)">
<path d="M11.994 0.581543C5.66568 0.581543 0.535461 5.71176 0.535461 12.0401C0.535461 17.7158 4.66648 22.4163 10.0829 23.3265V14.4306H7.3188V11.2294H10.0829V8.86887C10.0829 6.13003 11.7557 4.63752 14.1993 4.63752C15.3697 4.63752 16.3754 4.72473 16.6674 4.76314V7.62596L14.9726 7.62678C13.644 7.62678 13.3878 8.25801 13.3878 9.18462V11.2277H16.558L16.1445 14.429H13.3878V23.403C19.0571 22.713 23.4524 17.8928 23.4524 12.0368C23.4524 5.71176 18.3221 0.581543 11.994 0.581543Z" fill="#15193D"/>
</g>
<defs>
<clipPath id="clip0">
<rect width="22.9169" height="22.9169" fill="white" transform="translate(0.535461 0.533691)"/>
</clipPath>
</defs>
</svg>
