<svg width="36" height="37" viewBox="0 0 36 37" fill="none" xmlns="http://www.w3.org/2000/svg">
<g clip-path="url(#clip0)">
<path d="M26.9714 0.768555H9C4.05714 0.768555 0 4.8257 0 9.79713V27.7686C0 32.7114 4.05714 36.7686 9 36.7686H26.9714C31.9429 36.7686 36 32.7114 36 27.74V9.79713C36 4.8257 31.9429 0.768555 26.9714 0.768555ZM17.0286 8.16855C17.0857 7.28284 17.9143 7.59713 18.3429 7.53998C23.7143 7.71141 28.3429 12.54 28.2857 17.74C28.2857 18.2543 28.4571 18.9971 27.6857 18.9971C26.9429 18.9971 27.1429 18.2257 27.0571 17.7114C26.3429 12.1971 23.7714 9.59713 18.1714 8.73998C17.7143 8.68284 17 8.76855 17.0286 8.16855ZM25.0571 17.9686C24.2 18.0828 24.3714 17.34 24.2857 16.8543C23.7143 13.4828 22.5143 12.2543 19.0571 11.5114C18.5429 11.3971 17.7429 11.4828 17.8857 10.7114C18 9.96855 18.7143 10.2257 19.2571 10.2828C22.7143 10.6828 25.5429 13.6257 25.5143 16.8543C25.4571 17.1971 25.6857 17.8543 25.0571 17.9686ZM22.9143 16.1971C22.9143 16.6543 22.8571 17.0828 22.3429 17.14C21.9714 17.1971 21.7429 16.8828 21.6857 16.5114C21.5429 15.14 20.8 14.3114 19.3714 14.0828C18.9429 14.0257 18.5429 13.8828 18.7429 13.3114C18.8857 12.94 19.2286 12.8828 19.6 12.8828C21.1429 12.8543 22.9143 14.6543 22.9143 16.1971ZM28.3429 26.74C27.7429 28.3686 25.7143 30.0257 23.9714 29.9971C23.7143 29.94 23.2286 29.8543 22.8 29.6828C15.1429 26.4543 9.57143 21.14 6.42857 13.54C5.37143 10.9971 6.48571 8.8257 9.14286 7.96856C9.62857 7.79713 10.0857 7.79713 10.5714 7.96856C11.7143 8.36856 14.6 12.2828 14.6571 13.4257C14.7143 14.3114 14.0857 14.7971 13.4857 15.1971C12.3143 15.9686 12.3143 16.94 12.8286 18.0543C13.9429 20.5114 15.8571 22.2257 18.3429 23.3114C19.2286 23.7114 20.1143 23.6828 20.7143 22.7686C21.8 21.14 23.1429 21.2257 24.6 22.2257C25.3429 22.74 26.0857 23.2257 26.7714 23.7686C27.7143 24.54 28.9143 25.1686 28.3429 26.74Z" fill="#CDCDCD"/>
</g>
<defs>
<clipPath id="clip0">
<rect width="36" height="36" fill="white" transform="translate(0 0.768555)"/>
</clipPath>
</defs>
</svg>
