<svg width="22" height="23" viewBox="0 0 22 23" fill="none" xmlns="http://www.w3.org/2000/svg">
<g clip-path="url(#clip0)">
<path d="M15.9496 0.800781H5.94003C2.68231 0.800781 0.0320435 3.45105 0.0320435 6.70877V16.7185C0.0320435 19.9761 2.68231 22.6264 5.94003 22.6264H15.9498C19.2074 22.6264 21.8576 19.9761 21.8576 16.7185V6.70877C21.8576 3.45105 19.2074 0.800781 15.9496 0.800781V0.800781ZM10.9448 17.6813C7.65414 17.6813 4.97707 15.0043 4.97707 11.7136C4.97707 8.42288 7.65414 5.7458 10.9448 5.7458C14.2355 5.7458 16.9126 8.42288 16.9126 11.7136C16.9126 15.0043 14.2355 17.6813 10.9448 17.6813ZM17.0553 7.1532C16.0828 7.1532 15.2919 6.36225 15.2919 5.38979C15.2919 4.41734 16.0828 3.62622 17.0553 3.62622C18.0278 3.62622 18.8189 4.41734 18.8189 5.38979C18.8189 6.36225 18.0278 7.1532 17.0553 7.1532Z" fill="#15193D"/>
<path d="M10.9448 7.02539C8.35985 7.02539 6.25659 9.12849 6.25659 11.7136C6.25659 14.2986 8.35985 16.4019 10.9448 16.4019C13.53 16.4019 15.6331 14.2986 15.6331 11.7136C15.6331 9.12849 13.53 7.02539 10.9448 7.02539Z" fill="#15193D"/>
<path d="M17.0553 4.90576C16.7885 4.90576 16.5714 5.1229 16.5714 5.38966C16.5714 5.65642 16.7885 5.87355 17.0553 5.87355C17.3222 5.87355 17.5394 5.65658 17.5394 5.38966C17.5394 5.12273 17.3222 4.90576 17.0553 4.90576Z" fill="#15193D"/>
</g>
<defs>
<clipPath id="clip0">
<rect width="21.8256" height="21.8256" fill="white" transform="translate(0.0320435 0.800781)"/>
</clipPath>
</defs>
</svg>
