<svg width="23" height="23" viewBox="0 0 23 23" fill="none" xmlns="http://www.w3.org/2000/svg">
<g clip-path="url(#clip0)">
<path d="M11.8491 0.800781H11.8436C5.82656 0.800781 0.933533 5.69518 0.933533 11.7136C0.933533 14.1008 1.70289 16.3133 3.01106 18.1099L1.65105 22.164L5.84566 20.8231C7.57125 21.9662 9.62968 22.6264 11.8491 22.6264C17.8661 22.6264 22.7592 17.7306 22.7592 11.7136C22.7592 5.69654 17.8661 0.800781 11.8491 0.800781ZM18.199 16.211C17.9357 16.9545 16.8908 17.571 16.0573 17.7511C15.4871 17.8725 14.7423 17.9694 12.2351 16.9299C9.02811 15.6013 6.96286 12.3424 6.8019 12.131C6.64775 11.9196 5.506 10.4054 5.506 8.83943C5.506 7.27344 6.30127 6.51091 6.62183 6.18352C6.88511 5.9148 7.32025 5.79203 7.73767 5.79203C7.87272 5.79203 7.99412 5.79885 8.10325 5.8043C8.42381 5.81795 8.58478 5.83704 8.79621 6.34312C9.05948 6.97743 9.70061 8.54342 9.777 8.70438C9.85475 8.86535 9.93251 9.0836 9.82338 9.29504C9.72107 9.5133 9.63104 9.61015 9.47008 9.79566C9.30911 9.98118 9.15633 10.123 8.99537 10.3222C8.84805 10.4954 8.68163 10.681 8.86715 11.0015C9.05266 11.3153 9.69379 12.3615 10.6377 13.2018C11.8559 14.2863 12.8435 14.6328 13.1968 14.7801C13.4601 14.8892 13.7738 14.8633 13.9662 14.6587C14.2103 14.3954 14.5118 13.9589 14.8187 13.5292C15.037 13.2209 15.3125 13.1827 15.6017 13.2919C15.8964 13.3942 17.4555 14.1649 17.7761 14.3245C18.0967 14.4854 18.3081 14.5618 18.3858 14.6969C18.4622 14.8319 18.4622 15.4662 18.199 16.211Z" fill="#15193D"/>
</g>
<defs>
<clipPath id="clip0">
<rect width="21.8256" height="21.8256" fill="white" transform="translate(0.933533 0.800781)"/>
</clipPath>
</defs>
</svg>
