<svg width="23" height="23" viewBox="0 0 23 23" fill="none" xmlns="http://www.w3.org/2000/svg">
<g clip-path="url(#clip0)">
<path d="M16.3732 0.451233H6.36355C3.10583 0.451233 0.455566 3.1015 0.455566 6.35922V16.369C0.455566 19.6265 3.10583 22.2768 6.36355 22.2768H16.3733C19.6309 22.2768 22.2811 19.6265 22.2811 16.369V6.35922C22.2811 3.1015 19.6309 0.451233 16.3732 0.451233V0.451233ZM11.3684 17.3318C8.07767 17.3318 5.40059 14.6547 5.40059 11.364C5.40059 8.07333 8.07767 5.39626 11.3684 5.39626C14.659 5.39626 17.3361 8.07333 17.3361 11.364C17.3361 14.6547 14.659 17.3318 11.3684 17.3318ZM17.4788 6.80365C16.5064 6.80365 15.7154 6.0127 15.7154 5.04025C15.7154 4.06779 16.5064 3.27668 17.4788 3.27668C18.4513 3.27668 19.2424 4.06779 19.2424 5.04025C19.2424 6.0127 18.4513 6.80365 17.4788 6.80365Z" fill="#F6FBFF"/>
<path d="M11.3684 6.67572C8.78344 6.67572 6.68018 8.77882 6.68018 11.364C6.68018 13.949 8.78344 16.0522 11.3684 16.0522C13.9536 16.0522 16.0567 13.949 16.0567 11.364C16.0567 8.77882 13.9536 6.67572 11.3684 6.67572Z" fill="#F6FBFF"/>
<path d="M17.479 4.5564C17.2123 4.5564 16.9951 4.77353 16.9951 5.04029C16.9951 5.30705 17.2123 5.52419 17.479 5.52419C17.7459 5.52419 17.9631 5.30722 17.9631 5.04029C17.9631 4.77337 17.7459 4.5564 17.479 4.5564Z" fill="#F6FBFF"/>
</g>
<defs>
<clipPath id="clip0">
<rect width="21.8256" height="21.8256" fill="white" transform="translate(0.455566 0.451233)"/>
</clipPath>
</defs>
</svg>
