<svg width="24" height="24" viewBox="0 0 24 24" fill="none" xmlns="http://www.w3.org/2000/svg">
<g clip-path="url(#clip0)">
<path d="M12.418 0.231873C6.08969 0.231873 0.959473 5.36209 0.959473 11.6904C0.959473 17.3661 5.09049 22.0666 10.5069 22.9768V14.0809H7.74281V10.8797H10.5069V8.5192C10.5069 5.78036 12.1797 4.28785 14.6233 4.28785C15.7937 4.28785 16.7994 4.37506 17.0914 4.41347V7.27629L15.3966 7.27711C14.068 7.27711 13.8118 7.90834 13.8118 8.83495V10.878H16.982L16.5686 14.0793H13.8118V23.0534C19.4811 22.3634 23.8764 17.5431 23.8764 11.6871C23.8764 5.36209 18.7462 0.231873 12.418 0.231873Z" fill="#F6FBFF"/>
</g>
<defs>
<clipPath id="clip0">
<rect width="22.9169" height="22.9169" fill="white" transform="translate(0.959473 0.184204)"/>
</clipPath>
</defs>
</svg>
