<svg width="23" height="23" viewBox="0 0 23 23" fill="none" xmlns="http://www.w3.org/2000/svg">
<g clip-path="url(#clip0)">
<path d="M11.273 0.451233H11.2675C5.25045 0.451233 0.357422 5.34563 0.357422 11.364C0.357422 13.7512 1.12677 15.9638 2.43495 17.7603L1.07494 21.8144L5.26955 20.4735C6.99514 21.6166 9.05357 22.2769 11.273 22.2769C17.29 22.2769 22.183 17.3811 22.183 11.364C22.183 5.34699 17.29 0.451233 11.273 0.451233ZM17.6229 15.8615C17.3596 16.6049 16.3147 17.2215 15.4812 17.4016C14.911 17.523 14.1662 17.6198 11.659 16.5804C8.452 15.2517 6.38675 11.9929 6.22579 11.7815C6.07164 11.57 4.92989 10.0559 4.92989 8.48988C4.92989 6.92389 5.72516 6.16136 6.04572 5.83398C6.309 5.56525 6.74414 5.44248 7.16156 5.44248C7.2966 5.44248 7.41801 5.4493 7.52714 5.45476C7.8477 5.4684 8.00867 5.48749 8.2201 5.99358C8.48337 6.62788 9.1245 8.19387 9.20089 8.35484C9.27864 8.5158 9.3564 8.73406 9.24727 8.94549C9.14496 9.16375 9.05493 9.2606 8.89397 9.44612C8.733 9.63163 8.58022 9.7735 8.41926 9.97266C8.27194 10.1459 8.10552 10.3314 8.29103 10.652C8.47655 10.9657 9.11768 12.012 10.0616 12.8523C11.2798 13.9367 12.2674 14.2832 12.6207 14.4305C12.884 14.5397 13.1977 14.5138 13.39 14.3091C13.6342 14.0459 13.9357 13.6094 14.2426 13.1797C14.4609 12.8714 14.7364 12.8332 15.0256 12.9423C15.3202 13.0446 16.8794 13.8153 17.2 13.9749C17.5205 14.1359 17.732 14.2123 17.8097 14.3473C17.8861 14.4824 17.8861 15.1167 17.6229 15.8615Z" fill="#F6FBFF"/>
</g>
<defs>
<clipPath id="clip0">
<rect width="21.8256" height="21.8256" fill="white" transform="translate(0.357422 0.451233)"/>
</clipPath>
</defs>
</svg>
