<svg width="37" height="37" viewBox="0 0 37 37" fill="none" xmlns="http://www.w3.org/2000/svg">
<path d="M27.3953 0.419189H9.42383C4.48097 0.419189 0.423828 4.47633 0.423828 9.44776V27.4192C0.423828 32.362 4.48097 36.4192 9.42383 36.4192H27.3953C32.3667 36.4192 36.4238 32.362 36.4238 27.3906V9.44776C36.4238 4.47633 32.3667 0.419189 27.3953 0.419189ZM17.4524 7.81919C17.5095 6.93348 18.3381 7.24776 18.7667 7.19062C24.1381 7.36205 28.7667 12.1906 28.7095 17.3906C28.7095 17.9049 28.881 18.6478 28.1095 18.6478C27.3667 18.6478 27.5667 17.8763 27.481 17.362C26.7667 11.8478 24.1953 9.24776 18.5953 8.39062C18.1381 8.33348 17.4238 8.41919 17.4524 7.81919ZM25.481 17.6192C24.6238 17.7335 24.7953 16.9906 24.7095 16.5049C24.1381 13.1335 22.9381 11.9049 19.481 11.162C18.9667 11.0478 18.1667 11.1335 18.3095 10.362C18.4238 9.61919 19.1381 9.87633 19.681 9.93348C23.1381 10.3335 25.9667 13.2763 25.9381 16.5049C25.881 16.8478 26.1095 17.5049 25.481 17.6192ZM23.3381 15.8478C23.3381 16.3049 23.281 16.7335 22.7667 16.7906C22.3953 16.8478 22.1667 16.5335 22.1095 16.162C21.9667 14.7906 21.2238 13.962 19.7953 13.7335C19.3667 13.6763 18.9667 13.5335 19.1667 12.962C19.3095 12.5906 19.6524 12.5335 20.0238 12.5335C21.5667 12.5049 23.3381 14.3049 23.3381 15.8478ZM28.7667 26.3906C28.1667 28.0192 26.1381 29.6763 24.3953 29.6478C24.1381 29.5906 23.6524 29.5049 23.2238 29.3335C15.5667 26.1049 9.99526 20.7906 6.8524 13.1906C5.79526 10.6478 6.90954 8.47633 9.56669 7.61919C10.0524 7.44776 10.5095 7.44776 10.9953 7.61919C12.1381 8.01919 15.0238 11.9335 15.081 13.0763C15.1381 13.962 14.5095 14.4478 13.9095 14.8478C12.7381 15.6192 12.7381 16.5906 13.2524 17.7049C14.3667 20.162 16.281 21.8763 18.7667 22.962C19.6524 23.362 20.5381 23.3335 21.1381 22.4192C22.2238 20.7906 23.5667 20.8763 25.0238 21.8763C25.7667 22.3906 26.5095 22.8763 27.1953 23.4192C28.1381 24.1906 29.3381 24.8192 28.7667 26.3906Z" fill="#466EB6"/>
</svg>
